<svg t="1611032256392" fill="#77c" class="icon" viewBox="0 0 1024 1024" version="1.1" xmlns="http://www.w3.org/2000/svg" p-id="8034" width="32" height="32"><path d="M929.609213 454.936353 590.568427 124.030851c-21.067828-20.543895-49.225121-31.850405-79.409584-31.850405-30.181393 0-58.344826 11.305487-79.412654 31.850405L92.708472 454.936353c-34.985816 34.154891-30.481222 63.677275-24.697495 76.010161 4.121877 8.750291 18.037818 32.801057 58.127885 32.801057l49.690726 0 0 254.56072c0 57.794287 44.264133 112.211664 107.167788 112.211664l57.031924 0 87.298252 0 0-59.818387L427.327552 661.121296c0-28.884864-4.6673-44.977377 26.799366-44.977377l57.031924 0 57.033971 0c31.463596 0 26.797319 16.093537 26.797319 44.977377l0 209.581296 0 59.818387 87.299275 0 57.031924 0c62.901609 0 107.167788-54.4184 107.167788-112.211664L846.48912 563.748594l49.693796 0c40.08802 0 54.003961-24.050766 58.125839-32.801057C960.090435 518.613628 964.596052 489.091244 929.609213 454.936353L929.609213 454.936353zM896.181893 511.348154l-42.789549 0-28.516474 0L790.600229 511.348154l0 306.960137c0 28.884864-19.841907 59.815317-51.278897 59.815317l-88.441285 0 0-217.002312c0-57.798381-19.755949-97.373725-82.685187-97.373725l-57.034994 0L454.126918 563.747571c-62.933331 0-82.688257 39.575344-82.688257 97.373725l0 217.003336-88.441285 0c-31.439036 0-51.278897-30.930453-51.278897-59.815317l0-306.96116-34.275641 0-28.516474 0-42.786479 0c-0.982374 0-1.88493-3.605108-2.703575-3.656273 1.937119-3.171226 5.266957-11.207249 10.806113-16.604166l339.068416-330.677305c10.123568-9.899464 24.423249-15.96153 38.284955-15.83771 13.863752-0.124843 27.293623 5.938246 37.416168 15.83771l339.065346 330.677305c5.539156 5.396917 8.870018 13.433964 10.806113 16.604166C898.064776 507.742023 897.16529 511.348154 896.181893 511.348154L896.181893 511.348154z" p-id="8035"></path></svg>