<?xml version="1.0" encoding="utf-8"?>
<!-- Generator: Adobe Illustrator 26.2.1, SVG Export Plug-In . SVG Version: 6.00 Build 0)  -->
<svg version="1.1" xmlns="http://www.w3.org/2000/svg" xmlns:xlink="http://www.w3.org/1999/xlink" x="0px" y="0px"
	 viewBox="0 0 1000 1000" style="enable-background:new 0 0 1000 1000;" xml:space="preserve">
<style type="text/css">
	.st0{display:none;opacity:0.86;}
	.st1{fill:#7777CC;}
	.st2{fill:#444477;}
	.st3{fill:#FFFFFF;}
	.st4{display:none;}
</style>
<g id="图层_1" class="st0">
</g>
<g id="图层_2">
	<circle class="st1" cx="740" cy="740" r="240"/>
	<circle class="st1" cx="260" cy="260" r="240"/>
	<circle class="st2" cx="300" cy="700" r="300"/>
	<circle class="st2" cx="700" cy="300" r="300"/>
	<path class="st3" d="M700,200c-55.2,0-100,44.8-100,100s-44.8,100-100,100s-100-44.8-100-100c0-1,0-1.9-0.1-2.9c0,0,0,0,0,0
		c0,0,0,0,0.1,0c0,0,0,0,0.1,0c0.6-65.1,22-125.2,57.8-174.1c-62,8.7-117.8,36.4-161.6,77c0,0-0.1,0.1-0.1,0.1
		c-1.6,0.1-3.3,0.2-4.9,0.3c1.6-0.1,3.3-0.2,4.9-0.3C237,254.9,200,333.1,200,420v280c0,55.2,44.8,100,100,100s100-44.8,100-100
		s44.8-100,100-100s100,44.8,100,100c0,1,0,1.9,0.1,2.9c0,0,0,0,0,0c0,0,0,0-0.1,0c0,0,0,0-0.1,0c-0.6,65.1-22,125.2-57.8,174.1
		c62-8.7,117.8-36.4,161.6-77c0,0,0.1-0.1,0.1-0.1c1.6-0.1,3.3-0.2,4.9-0.3c-1.6,0.1-3.3,0.2-4.9,0.3C763,745.1,800,666.9,800,580
		V300C800,244.8,755.2,200,700,200z M394.8,268.2C394.8,268.2,394.8,268.2,394.8,268.2C394.8,268.2,394.8,268.2,394.8,268.2z
		 M393.2,263.7C393.2,263.6,393.1,263.6,393.2,263.7C393.1,263.6,393.2,263.6,393.2,263.7z M391.3,259.3c0,0,0-0.1-0.1-0.1
		C391.3,259.2,391.3,259.2,391.3,259.3z M389.3,255c0-0.1-0.1-0.1-0.1-0.2C389.2,254.9,389.3,254.9,389.3,255z M387.1,250.8
		c0-0.1-0.1-0.2-0.1-0.3C387,250.7,387,250.7,387.1,250.8z M384.6,246.8c-0.1-0.1-0.1-0.2-0.2-0.3
		C384.5,246.6,384.6,246.7,384.6,246.8z M382,242.9c-0.1-0.1-0.2-0.3-0.3-0.4C381.8,242.6,382,242.7,382,242.9z M379.3,239.1
		c-0.1-0.2-0.3-0.3-0.4-0.5C379,238.7,379.1,238.9,379.3,239.1z M376.3,235.4c-0.2-0.2-0.3-0.4-0.5-0.6
		C376,235,376.2,235.2,376.3,235.4z M373.2,231.9c-0.2-0.2-0.4-0.4-0.6-0.6C372.8,231.5,373,231.7,373.2,231.9z M369.9,228.5
		c-0.2-0.2-0.5-0.5-0.7-0.7C369.4,228.1,369.7,228.3,369.9,228.5z M305.1,200.1c-1.7-0.1-3.4-0.1-5.1-0.1
		C301.7,200,303.4,200,305.1,200.1z M366.5,225.3c-0.3-0.3-0.6-0.5-0.9-0.7C365.9,224.8,366.2,225.1,366.5,225.3z M362.9,222.3
		c-0.3-0.3-0.7-0.5-1-0.8C362.3,221.8,362.6,222,362.9,222.3z M359.2,219.4c-0.4-0.3-0.8-0.5-1.1-0.8
		C358.4,218.9,358.8,219.1,359.2,219.4z M355.3,216.7c-0.4-0.3-0.9-0.6-1.3-0.8C354.5,216.1,354.9,216.4,355.3,216.7z M351.3,214.2
		c-0.5-0.3-1-0.6-1.4-0.8C350.4,213.6,350.8,213.9,351.3,214.2z M347.2,211.8c-0.5-0.3-1.1-0.5-1.6-0.8
		C346.1,211.3,346.6,211.5,347.2,211.8z M342.9,209.7c-0.6-0.3-1.2-0.5-1.8-0.8C341.7,209.1,342.3,209.4,342.9,209.7z M338.5,207.7
		c-0.6-0.3-1.3-0.5-1.9-0.8C337.3,207.2,337.9,207.4,338.5,207.7z M334.1,206c-0.7-0.3-1.4-0.5-2.1-0.7
		C332.7,205.5,333.4,205.7,334.1,206z M329.5,204.4c-0.8-0.2-1.5-0.4-2.3-0.6C327.9,204,328.7,204.2,329.5,204.4z M324.8,203.1
		c-0.8-0.2-1.6-0.4-2.5-0.6C323.1,202.7,324,202.9,324.8,203.1z M320,202c-0.9-0.2-1.8-0.3-2.7-0.5C318.2,201.7,319.1,201.8,320,202
		z M315.1,201.1c-1-0.1-1.9-0.3-2.9-0.4C313.2,200.9,314.1,201,315.1,201.1z M310.1,200.5c-1.1-0.1-2.2-0.2-3.3-0.2
		C307.9,200.3,309,200.4,310.1,200.5z M605.2,731.8C605.2,731.8,605.2,731.8,605.2,731.8C605.2,731.8,605.2,731.8,605.2,731.8z
		 M627.4,768.7c-0.2-0.2-0.4-0.4-0.6-0.6C627,768.3,627.2,768.5,627.4,768.7z M624.2,765.1c-0.2-0.2-0.3-0.4-0.5-0.6
		C623.8,764.8,624,765,624.2,765.1z M621.1,761.4c-0.1-0.2-0.3-0.3-0.4-0.5C620.9,761.1,621,761.3,621.1,761.4z M618.2,757.6
		c-0.1-0.1-0.2-0.3-0.3-0.4C618,757.3,618.2,757.4,618.2,757.6z M615.6,753.6c-0.1-0.1-0.1-0.2-0.2-0.3
		C615.4,753.3,615.5,753.4,615.6,753.6z M613.1,749.4c0-0.1-0.1-0.2-0.1-0.3C613,749.3,613,749.3,613.1,749.4z M610.8,745.2
		c0-0.1-0.1-0.1-0.1-0.2C610.7,745.1,610.8,745.1,610.8,745.2z M608.7,740.9c0,0,0-0.1-0.1-0.1C608.7,740.8,608.7,740.8,608.7,740.9
		z M606.9,736.4C606.9,736.4,606.8,736.4,606.9,736.4C606.8,736.4,606.9,736.4,606.9,736.4z M630.1,771.5c0.2,0.2,0.5,0.5,0.7,0.7
		C630.6,771.9,630.3,771.7,630.1,771.5z M694.9,799.9c1.7,0.1,3.4,0.1,5.1,0.1C698.3,800,696.6,800,694.9,799.9z M633.5,774.7
		c0.3,0.3,0.6,0.5,0.9,0.7C634.1,775.2,633.8,774.9,633.5,774.7z M637.1,777.7c0.3,0.3,0.7,0.5,1,0.8
		C637.7,778.2,637.4,778,637.1,777.7z M640.8,780.6c0.4,0.3,0.8,0.5,1.1,0.8C641.6,781.1,641.2,780.9,640.8,780.6z M644.7,783.3
		c0.4,0.3,0.9,0.6,1.3,0.8C645.5,783.9,645.1,783.6,644.7,783.3z M648.7,785.8c0.5,0.3,1,0.6,1.4,0.8
		C649.6,786.4,649.2,786.1,648.7,785.8z M652.8,788.2c0.5,0.3,1.1,0.5,1.6,0.8C653.9,788.7,653.4,788.5,652.8,788.2z M657.1,790.3
		c0.6,0.3,1.2,0.5,1.8,0.8C658.3,790.9,657.7,790.6,657.1,790.3z M661.5,792.3c0.6,0.3,1.3,0.5,1.9,0.8
		C662.7,792.8,662.1,792.6,661.5,792.3z M665.9,794c0.7,0.3,1.4,0.5,2.1,0.7C667.3,794.5,666.6,794.3,665.9,794z M670.5,795.6
		c0.8,0.2,1.5,0.4,2.3,0.6C672.1,796,671.3,795.8,670.5,795.6z M675.2,796.9c0.8,0.2,1.6,0.4,2.5,0.6
		C676.9,797.3,676,797.1,675.2,796.9z M680,798c0.9,0.2,1.8,0.3,2.7,0.5C681.8,798.3,680.9,798.2,680,798z M684.9,798.9
		c1,0.1,1.9,0.3,2.9,0.4C686.8,799.1,685.9,799,684.9,798.9z M689.9,799.5c1.1,0.1,2.2,0.2,3.3,0.2
		C692.1,799.7,691,799.6,689.9,799.5z"/>
</g>
</svg>
